<?xml version="1.0" standalone="no"?>
<!DOCTYPE svg PUBLIC "-//W3C//DTD SVG 20010904//EN"
 "http://www.w3.org/TR/2001/REC-SVG-20010904/DTD/svg10.dtd">
<svg version="1.0" xmlns="http://www.w3.org/2000/svg"
 width="571.000000pt" height="571.000000pt" viewBox="0 0 571.000000 571.000000"
 preserveAspectRatio="xMidYMid meet">
<metadata>
Created by potrace 1.14, written by Peter Selinger 2001-2017
</metadata>
<g transform="translate(0.000000,571.000000) scale(0.100000,-0.100000)"
fill="#000000" stroke="none">
<path d="M3225 5610 l-20 -9 20 0 c11 0 27 4 35 9 13 9 13 10 0 9 -8 0 -24 -4
-35 -9z"/>
<path d="M3355 5610 c17 -4 41 -8 55 -8 23 -1 23 0 5 8 -11 5 -36 8 -55 8
l-35 0 30 -8z"/>
<path d="M4085 5610 c-13 -6 -5 -7 25 -3 25 3 47 7 49 9 9 8 -55 2 -74 -6z"/>
<path d="M4240 5610 c8 -5 24 -9 35 -9 l20 0 -20 9 c-11 5 -27 9 -35 9 -13 1
-13 0 0 -9z"/>
<path d="M3590 5544 c25 -14 46 -27 47 -28 2 -2 -22 -1 -52 2 -110 9 -351 -33
-490 -85 -373 -140 -675 -510 -770 -946 -22 -100 -31 -350 -16 -461 20 -148
88 -338 166 -463 34 -54 34 -56 6 -23 -17 19 -31 38 -31 42 0 8 -12 23 -62 81
-15 18 -30 40 -34 50 -3 9 -9 17 -13 17 -9 0 -71 94 -71 107 0 6 -9 18 -20 28
-11 10 -20 22 -20 27 0 5 -5 14 -10 21 -6 7 -25 35 -43 62 -17 28 -35 55 -40
60 -4 6 -22 33 -39 60 -37 59 -114 145 -122 137 -3 -3 -6 1 -6 9 -1 30 -128
129 -235 182 -186 92 -227 103 -400 112 -99 5 -137 3 -217 -13 -84 -18 -211
-68 -228 -91 -3 -4 -27 -18 -55 -32 -38 -19 -49 -30 -47 -45 2 -10 6 -21 7
-23 11 -11 101 -12 139 -1 35 9 56 9 102 -1 33 -7 66 -18 74 -24 8 -7 36 -17
62 -24 51 -12 139 -60 145 -78 3 -7 -5 -21 -16 -32 -23 -23 -48 -21 -169 10
-40 11 -78 17 -83 13 -5 -3 -50 -9 -99 -14 -62 -6 -98 -14 -117 -28 -16 -11
-61 -36 -100 -56 -77 -38 -100 -58 -35 -30 146 64 317 93 439 76 255 -36 458
-170 685 -450 290 -360 423 -481 653 -596 136 -68 178 -83 385 -141 164 -46
279 -96 319 -139 l21 -22 -168 1 c-98 1 -175 6 -187 12 -11 6 -49 17 -84 23
-90 16 -215 56 -285 91 -32 16 -63 29 -68 29 -11 0 -92 52 -96 63 -2 4 -9 7
-17 7 -7 0 -18 6 -24 14 -7 8 -27 22 -46 31 -19 9 -35 20 -35 25 0 5 -10 12
-21 15 -12 4 -43 28 -69 54 -26 25 -68 66 -94 91 -26 25 -93 94 -149 155 -153
164 -260 277 -276 289 -7 6 -29 26 -48 44 -19 17 -39 32 -43 32 -4 0 -21 12
-38 28 -38 35 -56 45 -172 102 -97 48 -192 71 -340 85 -118 11 -359 -34 -400
-75 -3 -3 -17 -11 -32 -19 -16 -8 -28 -21 -28 -28 0 -10 5 -11 19 -3 11 5 22
6 25 2 3 -5 -17 -14 -44 -21 -51 -13 -76 -31 -44 -31 10 0 46 7 79 15 62 16
62 16 121 -12 65 -32 67 -36 48 -133 -8 -35 -17 -49 -44 -67 -55 -36 -57 -38
-81 -110 l-22 -68 6 -502 c4 -276 10 -510 14 -520 5 -10 10 232 13 537 5 514
6 558 23 583 60 92 186 85 238 -13 18 -33 19 -79 19 -966 l0 -932 33 -48 c34
-53 117 -104 167 -104 35 0 129 47 369 184 111 64 205 116 207 116 3 0 21 11
42 24 123 77 464 266 481 266 27 0 33 -26 29 -119 l-3 -75 -90 -54 c-49 -30
-218 -127 -375 -214 -157 -88 -299 -174 -317 -191 -58 -54 -55 -123 6 -188 63
-65 113 -55 321 67 41 24 79 44 84 43 5 0 12 3 15 8 6 10 45 33 126 78 28 15
127 70 220 122 267 148 290 184 283 441 -3 141 -5 149 -33 201 -76 139 -242
209 -356 150 -23 -11 -242 -135 -488 -276 -245 -141 -452 -258 -459 -260 -9
-4 -12 165 -12 824 0 912 -2 879 57 854 38 -15 88 -67 102 -104 7 -19 11 -209
11 -558 0 -473 2 -533 17 -562 22 -43 41 -56 83 -57 34 0 150 50 179 78 7 7
36 24 65 39 144 73 196 124 196 196 0 74 -33 112 -178 202 l-92 58 0 201 1
201 25 -30 c158 -183 206 -235 288 -308 199 -177 304 -244 543 -346 220 -94
253 -111 277 -144 19 -25 22 -48 27 -205 4 -97 7 -496 8 -885 1 -799 -4 -748
79 -789 38 -18 49 -19 83 -9 24 7 49 25 66 48 l28 36 5 871 c3 479 10 881 14
893 5 13 12 20 17 17 5 -3 6 1 3 9 -7 20 30 45 167 112 134 66 156 67 183 11
18 -38 19 -41 2 -107 -16 -58 -16 -71 -4 -95 49 -104 189 -39 264 122 38 81
69 237 60 295 l-6 38 159 90 c87 50 168 91 179 91 12 0 28 -11 37 -23 13 -21
15 -105 13 -677 l-3 -654 -80 -49 c-128 -79 -256 -148 -267 -145 -6 2 -9 66
-9 167 2 184 -5 211 -58 211 -25 0 -41 -14 -103 -92 -41 -51 -107 -137 -148
-192 -40 -54 -99 -130 -132 -170 -59 -72 -71 -107 -45 -138 6 -8 99 -57 205
-108 169 -81 197 -92 232 -87 39 5 100 37 340 177 69 40 143 83 165 94 22 12
42 23 45 26 5 6 302 178 452 263 98 55 141 99 157 163 7 28 11 237 11 619 l0
577 44 50 c24 27 62 83 86 124 44 77 100 229 100 272 0 15 7 26 20 29 18 5 18
7 5 26 -11 16 -15 51 -15 132 0 110 0 112 36 171 97 160 157 306 194 472 15
68 15 372 0 437 -36 151 -111 365 -135 385 -7 6 2 -24 20 -67 71 -163 114
-372 115 -546 0 -89 -23 -252 -45 -317 -13 -38 -14 -40 -9 -10 3 19 8 48 10
64 2 16 8 43 13 61 9 35 3 94 -11 113 -6 6 -21 12 -34 12 -27 0 -30 8 -39 120
-12 144 -69 349 -132 475 -83 165 -247 357 -387 454 -203 139 -422 210 -658
213 -73 1 -174 -2 -224 -6 l-92 -9 -59 37 c-32 20 -63 36 -68 36 -6 0 10 -12
35 -26z m-64 -345 c66 -12 164 -56 207 -93 l28 -24 63 39 c98 61 166 82 271
82 105 0 191 -20 284 -68 138 -69 285 -206 363 -337 39 -65 88 -193 103 -267
7 -35 7 -34 -76 43 -141 130 -307 195 -469 182 -41 -3 -91 -10 -111 -16 -86
-24 -172 -120 -185 -205 -10 -68 18 -148 71 -200 34 -35 58 -48 117 -65 142
-41 249 -83 326 -128 84 -49 215 -173 246 -233 l19 -37 -55 -113 c-67 -136
-139 -226 -251 -315 -144 -114 -340 -197 -526 -224 -118 -18 -340 -8 -466 20
-237 53 -463 193 -603 374 -49 63 -142 238 -142 266 0 31 123 161 219 230 69
50 172 97 311 140 74 23 152 53 172 66 78 50 117 192 74 273 -29 54 -102 118
-164 143 -75 30 -256 32 -342 4 -100 -34 -190 -88 -271 -163 l-78 -74 20 73
c67 247 238 455 464 563 138 67 257 87 381 64z m819 -648 c65 -30 92 -70 86
-127 -3 -30 -35 -23 -78 17 -40 37 -49 41 -80 36 -20 -4 -46 -15 -58 -27 -46
-43 -93 -8 -64 48 15 26 99 72 134 72 11 0 38 -9 60 -19z m-1017 -5 c43 -22
64 -51 60 -83 -4 -37 -29 -41 -71 -9 -50 38 -88 34 -141 -14 -49 -46 -49 -45
-70 -24 -30 29 0 96 57 126 39 21 128 23 165 4z m-2383 -126 c-3 -5 -14 -10
-23 -9 -14 0 -13 2 3 9 27 11 27 11 20 0z m4271 -504 c-17 -41 -24 -45 -22
-14 1 20 26 58 34 52 2 -1 -4 -18 -12 -38z m-4483 -33 c-13 -2 -33 -2 -45 0
-13 2 -3 4 22 4 25 0 35 -2 23 -4z m-166 -19 c-3 -3 -12 -4 -19 -1 -8 3 -5 6
6 6 11 1 17 -2 13 -5z m4609 -41 c-13 -27 -32 -57 -41 -68 -9 -11 -5 1 9 27
15 27 23 54 20 65 -4 13 -3 14 4 5 7 -11 10 -11 15 2 4 9 9 16 12 16 3 0 -6
-21 -19 -47z m-349 -370 c-11 -154 -68 -311 -162 -452 -48 -71 -181 -208 -225
-231 -24 -13 -25 -12 -7 7 9 11 15 22 12 25 -3 3 1 11 10 18 8 7 15 17 15 22
0 5 10 24 23 41 13 18 36 61 51 97 15 36 34 79 42 97 8 17 17 46 20 65 4 18
10 38 14 43 4 6 11 25 15 43 3 17 11 32 16 32 9 0 23 28 29 55 1 6 16 28 34
50 42 53 82 114 97 148 7 15 14 27 17 27 3 0 2 -39 -1 -87z m-2296 30 c13 -16
12 -17 -3 -4 -10 7 -18 15 -18 17 0 8 8 3 21 -13z m1842 -738 c-3 -9 -8 -14
-10 -11 -3 3 -2 9 2 15 9 16 15 13 8 -4z m-1360 -92 c-7 -2 -19 -2 -25 0 -7 3
-2 5 12 5 14 0 19 -2 13 -5z"/>
<path d="M3672 4403 c-67 -33 -111 -117 -98 -188 9 -44 66 -111 114 -131 80
-33 183 -7 241 62 30 36 32 43 29 101 -7 108 -79 173 -193 173 -35 0 -74 -7
-93 -17z m165 -76 c26 -26 -22 -49 -94 -45 -50 3 -58 6 -58 23 0 11 11 25 25
33 31 16 107 10 127 -11z"/>
<path d="M3349 4019 c-59 -59 33 -179 177 -230 72 -26 137 -21 197 14 l40 24
50 -25 c88 -46 218 -30 304 38 42 33 84 97 85 130 2 55 -55 90 -93 58 -9 -7
-23 -25 -32 -40 -26 -41 -86 -68 -153 -68 -53 0 -58 2 -93 40 -49 54 -92 56
-122 6 -29 -49 -66 -62 -137 -46 -46 10 -66 22 -112 66 -62 59 -80 64 -111 33z"/>
<path d="M4551 5526 c10 -9 109 -56 109 -51 0 5 -95 55 -106 55 -4 0 -5 -2 -3
-4z"/>
<path d="M4739 5417 c14 -18 51 -42 51 -33 0 3 -15 15 -32 27 -24 17 -29 18
-19 6z"/>
<path d="M4895 5280 c44 -44 81 -80 83 -80 11 0 -26 44 -81 98 -94 90 -96 76
-2 -18z"/>
<path d="M2524 5218 l-19 -23 23 19 c12 11 22 21 22 23 0 8 -8 2 -26 -19z"/>
<path d="M5027 5135 c16 -22 40 -57 52 -77 12 -21 25 -38 27 -38 11 0 -42 84
-74 119 l-34 36 29 -40z"/>
<path d="M2385 5040 c-10 -11 -24 -20 -32 -20 -8 0 -11 -4 -8 -10 12 -19 35
-10 50 20 18 35 15 38 -10 10z"/>
<path d="M1945 5030 c-13 -6 -1 -7 35 -3 30 3 57 7 59 9 9 8 -75 2 -94 -6z"/>
<path d="M2175 5030 c17 -4 46 -8 65 -8 28 -1 31 1 15 8 -11 5 -40 8 -65 8
-41 0 -42 -1 -15 -8z"/>
<path d="M5101 2418 c-1 -886 -1 -898 -22 -953 -25 -67 -66 -117 -123 -149
-22 -13 -167 -97 -321 -187 -154 -89 -359 -208 -455 -264 -175 -101 -319 -186
-915 -537 -183 -108 -342 -195 -373 -204 -68 -20 -111 -13 -207 36 -42 22 -73
35 -69 29 3 -6 43 -28 87 -50 65 -31 92 -39 136 -39 66 0 99 14 248 103 231
137 554 328 676 398 70 41 162 95 203 122 41 26 100 60 132 76 63 32 232 131
357 209 44 27 103 61 130 75 28 14 87 47 132 75 45 28 118 69 163 92 88 46
172 116 196 162 44 85 44 79 43 993 0 479 -4 879 -9 890 -5 11 -9 -367 -9
-877z"/>
<path d="M565 1490 c8 -39 30 -86 44 -94 8 -5 -36 114 -46 124 -3 3 -2 -11 2
-30z"/>
<path d="M2141 1306 c-107 -63 -204 -126 -214 -141 -22 -29 -33 -99 -23 -139
11 -45 66 -95 175 -160 58 -35 140 -84 181 -110 87 -54 125 -59 161 -20 l24
26 0 305 0 305 -28 24 c-15 13 -40 24 -55 24 -16 -1 -108 -48 -221 -114z"/>
<path d="M695 1313 c18 -18 157 -102 488 -294 64 -38 172 -101 240 -140 67
-40 169 -100 227 -134 108 -65 243 -134 225 -117 -13 12 -490 292 -499 292 -2
0 -51 29 -110 65 -58 36 -108 65 -110 65 -3 0 -69 39 -148 87 -79 47 -172 103
-208 123 -36 20 -78 44 -95 55 l-30 18 20 -20z"/>
<path d="M1893 614 c5 -10 89 -60 205 -125 23 -13 102 -59 175 -103 218 -130
240 -143 285 -165 23 -12 42 -19 42 -17 0 3 -91 59 -125 76 -5 3 -109 64 -230
136 -260 155 -361 211 -352 198z"/>
</g>
</svg>
